<svg width="48" height="30" viewBox="0 0 48 30" xmlns="http://www.w3.org/2000/svg">
  <rect width="48" height="30" rx="4" fill="#F0F0F0"/>
  <path d="M18.7 19.75H15.65L17.6 10.25H20.65L18.7 19.75Z" fill="#00579F"/>
  <path d="M28.7 10.45C28.05 10.2 27.05 10 25.8 10C23.05 10 21.05 11.45 21.05 13.5C21.05 15 22.5 15.85 23.6 16.35C24.7 16.85 25.05 17.2 25.05 17.65C25.05 18.35 24.2 18.7 23.45 18.7C22.35 18.7 21.8 18.55 20.85 18.15L20.45 17.95L20.05 20.5C20.8 20.85 22.05 21.1 23.35 21.1C26.3 21.1 28.25 19.65 28.25 17.45C28.25 16.3 27.55 15.4 25.9 14.7C24.9 14.25 24.25 13.95 24.25 13.45C24.25 13 24.75 12.55 25.85 12.55C26.75 12.5 27.45 12.7 28 12.9L28.3 13.05L28.7 10.45Z" fill="#00579F"/>
  <path d="M32.7 16.45C32.95 15.8 33.75 13.5 33.75 13.5C33.75 13.5 33.9 13.05 34 12.8L34.15 13.4C34.15 13.4 34.65 15.85 34.75 16.45C34.3 16.45 33.25 16.45 32.7 16.45ZM36.15 10.25H33.85C33.1 10.25 32.55 10.45 32.2 11.25L28 19.75H31C31 19.75 31.45 18.5 31.55 18.2C31.85 18.2 34.5 18.2 34.9 18.2C34.95 18.6 35.2 19.75 35.2 19.75H37.9L36.15 10.25Z" fill="#00579F"/>
  <path d="M14.4 10.25L11.5 16.75L11.2 15.05C10.7 13.55 9.2 11.95 7.5 11.15L10.2 19.75H13.25L18.2 10.25H14.4Z" fill="#00579F"/>
  <path d="M9.25 10.25H4.5L4.45 10.45C8.1 11.3 10.5 12.95 11.2 15.05L10.3 11.25C10.15 10.5 9.75 10.3 9.25 10.25Z" fill="#FAA61A"/>
</svg> 