<svg width="48" height="30" viewBox="0 0 48 30" xmlns="http://www.w3.org/2000/svg">
  <rect width="48" height="30" rx="4" fill="#F0F0F0"/>
  <path d="M16.5 10.5H22.5C24.9 10.5 25.5 11.7 25.5 13.5C25.5 15.9 24 18 21 18H19.5C19.1 18 18.9 18.2 18.7 18.7L18 21.5C18 21.6 17.9 21.7 17.7 21.7H15C14.8 21.7 14.7 21.6 14.8 21.3L17.4 11C17.4 10.7 17.7 10.5 18 10.5H16.5Z" fill="#253B80"/>
  <path d="M30.1 10.5H33.8C34 10.5 34.1 10.7 34 10.9L31.3 21.3C31.3 21.5 31.1 21.7 30.8 21.7H27.2C27 21.7 26.9 21.5 27 21.3L29.6 11C29.7 10.7 29.9 10.5 30.1 10.5Z" fill="#179BD7"/>
  <path d="M25.4 13.8C25.4 13.6 25.5 13.4 25.6 13.2C25.7 13 25.9 12.9 26.1 12.8C26.3 12.7 26.5 12.6 26.7 12.6C26.9 12.6 27.1 12.6 27.3 12.6H30.7C30.9 12.6 31.1 12.6 31.3 12.7C31.5 12.8 31.6 12.8 31.7 12.9C31.8 13 31.9 13.1 32 13.2C32.1 13.3 32.1 13.4 32.1 13.6C32.1 13.7 32.1 13.9 32.1 14.1C32 14.2 32 14.4 31.9 14.6C31.8 14.8 31.7 15 31.5 15.1C31.4 15.3 31.2 15.4 31 15.5C30.8 15.6 30.6 15.7 30.4 15.8C30.2 15.9 29.9 15.9 29.7 15.9H29.3C29.1 15.9 28.9 16 28.8 16.1C28.6 16.2 28.5 16.3 28.5 16.5L28.3 17.6C28.3 17.8 28.1 17.9 27.9 17.9H26.5C26.3 17.9 26.2 17.8 26.3 17.6L27.3 13.8C27.2 13.8 27.4 13.8 25.4 13.8Z" fill="#253B80"/>
  <path d="M21.8 17.6L22.8 13.5C22.8 13.3 22.9 13.1 23.1 12.9C23.3 12.7 23.4 12.6 23.6 12.5C23.8 12.4 24 12.3 24.3 12.3C24.5 12.3 24.7 12.3 24.9 12.3H28.3C28.5 12.3 28.7 12.3 28.9 12.4C29.1 12.4 29.2 12.5 29.3 12.6C29.4 12.7 29.5 12.8 29.6 12.9C29.7 13 29.7 13.1 29.7 13.3C29.7 13.4 29.7 13.6 29.7 13.8C29.6 13.9 29.6 14.1 29.5 14.3C29.4 14.5 29.3 14.7 29.1 14.8C29 15 28.8 15.1 28.6 15.2C28.4 15.3 28.2 15.4 28 15.5C27.8 15.6 27.5 15.6 27.3 15.6H26.9C26.7 15.6 26.5 15.7 26.4 15.8C26.2 15.9 26.1 16 26.1 16.2L25.9 17.3C25.9 17.5 25.7 17.6 25.5 17.6H24Z" fill="#179BD7"/>
</svg> 