<?xml version="1.0" encoding="UTF-8"?>
<svg width="24" height="24" viewBox="0 0 24 24" fill="none" xmlns="http://www.w3.org/2000/svg">
  <path d="M20.0001 6.99999C20.0001 5.34314 18.6569 3.99999 17.0001 3.99999C15.3432 3.99999 14.0001 5.34314 14.0001 6.99999C14.0001 7.74061 14.2462 8.41918 14.662 8.95999L8.47017 15.1518C7.93099 14.7441 7.25728 14.5 6.52197 14.5C4.86511 14.5 3.52197 15.8431 3.52197 17.5C3.52197 19.1568 4.86511 20.5 6.52197 20.5C8.17882 20.5 9.52197 19.1568 9.52197 17.5C9.52197 16.7594 9.27591 16.0808 8.86005 15.54L15.0401 9.35998C15.5809 9.7538 16.263 10 17.0001 10C18.6569 10 20.0001 8.65684 20.0001 6.99999Z" stroke="#FFCC00" stroke-width="2" stroke-linecap="round" stroke-linejoin="round"/>
</svg> 